<?xml version="1.0" encoding="utf-8"?>
<!-- Generator: Adobe Illustrator 26.3.1, SVG Export Plug-In . SVG Version: 6.00 Build 0)  -->
<svg version="1.1" id="Capa_1" xmlns="http://www.w3.org/2000/svg" xmlns:xlink="http://www.w3.org/1999/xlink" x="0px" y="0px"
	 viewBox="0 0 822.05 184.25" style="enable-background:new 0 0 822.05 184.25;" xml:space="preserve">
<style type="text/css">
	.st0{fill:#5B9BD4;}
	.st1{fill:#B2AAA8;}
	.st2{fill:#C91517;}
</style>
<g>
	<rect x="160.86" y="76.67" class="st0" width="29.34" height="52.17"/>
	<polygon class="st1" points="160.86,68.32 190.2,68.32 190.2,46.95 160.86,54.47 	"/>
	<path class="st2" d="M166.11,31.02c1.21,1.21,2.61,2.17,4.24,2.9c1.62,0.74,3.37,1.1,5.25,1.1c1.89,0,3.64-0.36,5.26-1.1
		c1.62-0.74,3.03-1.7,4.24-2.9c1.2-1.21,2.15-2.61,2.82-4.24c0.68-1.62,1.02-3.37,1.02-5.25c0-1.78-0.34-3.48-1.02-5.1
		c-0.67-1.62-1.62-3.03-2.82-4.24c-1.21-1.21-2.61-2.17-4.24-2.9s-3.37-1.1-5.26-1.1c-1.88,0-3.63,0.36-5.25,1.1s-3.03,1.7-4.24,2.9
		s-2.15,2.61-2.82,4.24c-0.68,1.62-1.02,3.32-1.02,5.1c0,1.88,0.34,3.63,1.02,5.25C163.97,28.41,164.91,29.82,166.11,31.02z"/>
	<path class="st0" d="M300.49,103.73c-3.04,0.21-6.2,0.39-9.5,0.55c-3.29,0.15-6.56,0.31-9.8,0.47c-3.24,0.16-6.31,0.29-9.18,0.39
		c-2.88,0.1-5.31,0.15-7.3,0.15c-5.97,0-10.87-0.18-14.75-0.54c-3.86-0.36-6.93-1.12-9.18-2.27c-2.25-1.15-3.79-2.8-4.62-4.94
		c-0.84-2.15-1.26-5.05-1.26-8.71s0.42-6.6,1.26-8.78c0.5-1.32,1.25-2.45,2.26-3.38h-33.75c-0.57,3.62-0.84,7.67-0.84,12.17
		c0,8.68,1.05,15.74,3.14,21.17c2.09,5.44,5.55,9.7,10.36,12.79c4.8,3.09,11.08,5.18,18.83,6.28c7.74,1.1,17.26,1.65,28.55,1.65
		c8.37,0,16.03-0.58,22.99-1.73c6.95-1.15,12.57-2.51,16.86-4.08l3.61,3.92h21.17V76.67h-28.86V103.73z"/>
	<path class="st1" d="M300.17,51.34c-3.45-0.84-7.11-1.57-10.98-2.2c-3.35-0.52-7.11-1.02-11.29-1.49c-4.18-0.47-8.58-0.7-13.18-0.7
		c-11.29,0-20.81,0.54-28.55,1.64c-7.75,1.1-14.02,3.19-18.83,6.28c-4.81,3.08-8.27,7.35-10.36,12.79
		c-0.09,0.22-0.17,0.45-0.25,0.67h122.61V12.9h-29.34L300.17,51.34z"/>
	<path class="st0" d="M439.01,103.73c-2.93,0.21-6.04,0.39-9.34,0.55c-3.3,0.15-6.54,0.31-9.72,0.47c-3.2,0.16-6.23,0.29-9.1,0.39
		c-2.88,0.1-5.31,0.15-7.3,0.15c-5.96,0-10.87-0.18-14.74-0.54c-3.87-0.36-6.94-1.12-9.18-2.27c-2.25-1.15-3.8-2.8-4.63-4.94
		c-0.84-2.15-1.26-5.05-1.26-8.71s0.42-6.6,1.26-8.78c0.5-1.32,1.26-2.45,2.27-3.38h-33.75c-0.57,3.62-0.84,7.67-0.84,12.17
		c0,8.68,1.05,15.74,3.14,21.17c2.09,5.44,5.54,9.7,10.35,12.79c4.81,3.09,11.09,5.18,18.83,6.28c7.74,1.1,17.26,1.65,28.55,1.65
		c8.37,0,16.03-0.58,22.99-1.73c6.96-1.15,12.57-2.51,16.86-4.08l3.61,3.92h21.18V76.67h-29.18V103.73z"/>
	<path class="st1" d="M425.51,48.2c-7.52-0.84-14.85-1.26-21.96-1.26c-11.29,0-20.81,0.54-28.55,1.64
		c-7.74,1.1-14.01,3.19-18.83,6.28c-4.81,3.08-8.26,7.35-10.35,12.79c-0.09,0.22-0.17,0.45-0.25,0.67h122.61V54.63
		c-7.21-1.36-14.49-2.61-21.81-3.77C440,49.92,433.05,49.04,425.51,48.2z"/>
	<path class="st0" d="M515.96,94.48c-2.56-2.92-4.22-6.49-4.94-10.67c-0.39-2.23-0.68-4.61-0.85-7.14h-29.28
		c0.3,6.98,1.06,13.27,2.29,18.84c1.61,7.37,4.78,13.54,9.49,18.51c4.71,4.97,11.34,8.69,19.92,11.14
		c8.57,2.45,19.87,3.68,33.88,3.68v-25.1c-8.15,0-14.64-0.81-19.46-2.43C522.2,99.69,518.52,97.4,515.96,94.48z"/>
	<rect x="480.74" y="12.9" class="st1" width="29.18" height="55.42"/>
	<path class="st1" d="M674.17,67.65c-2.09-5.43-5.52-9.7-10.28-12.79c-4.76-3.08-11.01-5.18-18.75-6.28
		c-7.74-1.1-17.26-1.64-28.55-1.64c-11.3,0-20.81,0.54-28.56,1.64c-7.74,1.1-13.98,3.19-18.74,6.28
		c-4.76,3.08-8.19,7.35-10.28,12.79c-0.09,0.22-0.17,0.45-0.25,0.67h115.64C674.34,68.1,674.26,67.87,674.17,67.65z"/>
	<path class="st0" d="M677.85,126.4c-1.41-2.35-3.24-4.55-5.49-6.58c-2.25-2.04-4.99-3.74-8.24-5.1c1.68-1.14,3.3-2.53,4.87-4.15
		s2.98-3.5,4.24-5.65c1.25-2.15,2.24-4.56,2.98-7.23c0.73-2.67,1.1-5.61,1.1-8.86c0-4.49-0.28-8.55-0.84-12.17H644.5
		c0.25,0.43,0.46,0.88,0.64,1.34c0.84,2.19,1.26,5.12,1.26,8.78s-0.42,6.56-1.26,8.71c-0.83,2.15-2.38,3.79-4.62,4.94
		c-2.25,1.15-5.31,1.91-9.18,2.27c-3.87,0.36-8.79,0.54-14.75,0.54c-5.97,0-10.87-0.18-14.75-0.54c-3.87-0.36-6.9-1.12-9.09-2.27
		c-2.2-1.15-3.75-2.8-4.63-4.94c-0.9-2.15-1.33-5.05-1.33-8.71s0.44-6.6,1.33-8.78c0.19-0.47,0.42-0.92,0.67-1.34h-32.07
		c-0.57,3.62-0.84,7.67-0.84,12.17c0,9,1.73,16.1,5.18,21.33c3.46,5.23,8.29,9.18,14.51,11.85c6.22,2.67,13.56,4.34,22.04,5.02
		c8.47,0.68,17.73,0.92,27.77,0.7c6.49-0.1,11.71,0.21,15.69,0.95c3.97,0.73,7,1.75,9.1,3.05c2.09,1.31,3.43,2.8,3.99,4.47
		c0.58,1.68,0.81,3.46,0.72,5.34c-0.21,1.78-0.9,3.32-2.04,4.63c-1.15,1.3-3.14,2.4-5.97,3.29c-2.83,0.9-6.69,1.55-11.61,1.96
		c-4.92,0.42-11.2,0.63-18.83,0.63c-5.54,0-10.9-0.05-16.08-0.16c-5.18-0.11-10.03-0.23-14.59-0.39c-4.55-0.15-8.71-0.36-12.47-0.62
		c-3.77-0.27-6.96-0.55-9.57-0.86v21.8c3.03,0.52,6.51,1.02,10.44,1.49c3.92,0.47,8.15,0.91,12.7,1.33
		c4.56,0.42,9.31,0.76,14.28,1.01c4.96,0.27,9.96,0.39,14.98,0.39c13.18,0,24-0.81,32.48-2.43c8.46-1.62,15.19-3.92,20.16-6.9
		c4.96-2.98,8.39-6.62,10.27-10.9c1.89-4.29,2.83-9.1,2.83-14.44c0-2.51-0.31-5.05-0.94-7.61
		C680.29,131.21,679.27,128.76,677.85,126.4z"/>
	<path class="st0" d="M813.42,76.67h-33.7c1,0.94,1.77,2.07,2.31,3.38c0.89,2.19,1.33,5.12,1.33,8.78c0,3.66-0.45,6.56-1.33,8.71
		c-0.9,2.15-2.43,3.79-4.63,4.94c-2.2,1.15-5.23,1.91-9.09,2.27c-3.87,0.36-8.79,0.54-14.75,0.54c-5.97,0-10.89-0.18-14.75-0.54
		c-3.87-0.36-6.93-1.12-9.18-2.27c-2.25-1.15-3.79-2.8-4.63-4.94c-0.83-2.15-1.25-5.05-1.25-8.71s0.42-6.6,1.25-8.78
		c0.5-1.32,1.26-2.45,2.27-3.38h-33.59c-0.57,3.62-0.84,7.67-0.84,12.17c0,8.68,1.05,15.74,3.14,21.17
		c2.09,5.44,5.52,9.7,10.28,12.79c4.76,3.09,11,5.18,18.74,6.28c7.75,1.1,17.26,1.65,28.56,1.65c11.29,0,20.79-0.55,28.47-1.65
		c7.68-1.1,13.94-3.18,18.75-6.28c4.8-3.08,8.26-7.34,10.35-12.79c2.09-5.43,3.14-12.5,3.14-21.17
		C814.27,84.34,813.99,80.29,813.42,76.67z"/>
	<path class="st1" d="M811.13,67.65c-2.09-5.43-5.55-9.7-10.35-12.79c-4.81-3.08-11.07-5.18-18.75-6.28
		c-7.68-1.1-17.18-1.64-28.47-1.64c-11.3,0-20.81,0.54-28.56,1.64c-7.74,1.1-13.98,3.19-18.74,6.28
		c-4.76,3.08-8.19,7.35-10.28,12.79c-0.09,0.22-0.17,0.45-0.25,0.67h115.64C811.3,68.1,811.21,67.87,811.13,67.65z"/>
	<polygon class="st0" points="7.78,130.72 36.92,130.72 36.92,124.56 36.96,124.56 36.96,76.67 7.78,76.67 	"/>
	<path class="st0" d="M113.86,86.8c-0.74,4.18-2.35,7.74-4.87,10.67c-2.51,2.92-6.17,5.2-10.98,6.82
		c-4.81,1.62-19.44,2.43-19.44,2.43s-0.98-0.01-2.6-0.04v24.04h4.33c14.01,0,23.29-0.13,31.92-2.58c8.62-2.47,15.29-6.18,20-11.14
		c4.71-4.96,7.87-11.14,9.49-18.52c1.4-6.36,2.2-13.63,2.38-21.81h-29.2C114.75,80.33,114.41,83.71,113.86,86.8z"/>
	<path class="st1" d="M115,14.79h-0.04v36.27H38.37c0.83-3.54,2.35-6.61,4.56-9.18c2.51-2.92,6.17-5.2,10.98-6.82
		s19.46-2.43,19.46-2.43s0.97,0.01,2.6,0.04V8.63h-4.33c-14.01,0-23.3,0.13-31.92,2.58c-8.63,2.47-15.3,6.18-20.01,11.14
		c-4.71,4.96-7.87,11.14-9.49,18.52S7.78,56.85,7.78,66.68v1.64h136.36V8.27H115V14.79z"/>
</g>
</svg>
